<svg width="1040" height="231" viewBox="0 0 1040 231" fill="none" xmlns="http://www.w3.org/2000/svg">
<path d="M62.3478 230.451C54.1996 230.451 46.5549 229.903 39.4137 228.805C32.3641 227.799 25.9096 226.473 20.0502 224.827C14.2823 223.09 9.20111 221.306 4.80655 219.477L1.09864 179.971C8.33135 183.355 16.8916 186.51 26.7793 189.436C36.6671 192.271 47.15 193.689 58.2279 193.689C68.9397 193.689 76.5386 192.363 81.0247 189.711C85.6024 186.967 87.8912 182.715 87.8912 176.954V175.993C87.8912 172.153 86.8383 169.043 84.7326 166.666C82.7184 164.197 79.2852 161.956 74.4329 159.944C69.6721 157.841 63.2176 155.6 55.0693 153.223C42.8012 149.565 32.5472 145.495 24.3074 141.014C16.1592 136.533 10.0709 130.955 6.04252 124.279C2.01417 117.512 0 108.961 0 98.6277V96.8444C0 80.9323 5.40165 68.7696 16.2049 60.3563C27.0998 51.943 43.0758 47.7363 64.1331 47.7363C76.7675 47.7363 87.6623 48.8337 96.8176 51.0285C106.065 53.2233 113.892 55.8296 120.301 58.8474L124.009 95.6099C116.959 92.2262 108.948 89.3913 99.9762 87.1051C91.0956 84.7274 81.574 83.5386 71.4116 83.5386C64.2704 83.5386 58.6399 84.133 54.52 85.3219C50.4917 86.5107 47.6535 88.2482 46.0055 90.5344C44.3576 92.7292 43.5336 95.427 43.5336 98.6277V99.1764C43.5336 102.469 44.4491 105.349 46.2802 107.818C48.2028 110.287 51.5903 112.665 56.4426 114.951C61.3865 117.238 68.3903 119.707 77.4541 122.359C89.6307 125.925 99.7016 129.766 107.667 133.881C115.723 137.905 121.72 143.163 125.657 149.656C129.685 156.058 131.699 164.608 131.699 175.308V177.502C131.699 195.152 125.977 208.412 114.533 217.283C103.089 226.062 85.6939 230.451 62.3478 230.451Z" fill="#60C2DB"/>
<path d="M185.975 226.748H142.579L192.841 51.44H257.386L307.375 226.748H263.978L226.762 79.6977H223.603L185.975 226.748ZM264.39 185.458H185.288V152.125H264.39V185.458Z" fill="#60C2DB"/>
<path d="M398.849 231C373.764 231 355.178 224.964 343.093 212.893C331.1 200.73 325.103 182.944 325.103 159.533V51.44H368.225V160.356C368.225 171.695 370.651 180.292 375.503 186.144C380.447 191.906 388.229 194.786 398.849 194.786C409.561 194.786 417.343 191.906 422.195 186.144C427.048 180.292 429.474 171.695 429.474 160.356V51.44H472.595V159.533C472.595 182.944 466.599 200.73 454.605 212.893C442.703 224.964 424.118 231 398.849 231ZM378.25 37.0368L408.6 0H453.644V0.411523L415.191 37.4483H378.25V37.0368Z" fill="#60C2DB"/>
<path d="M572.868 226.748H533.042V190.808H571.357C582.343 190.808 590.583 187.836 596.076 181.892C601.57 175.948 604.316 167.443 604.316 156.378V121.261C604.316 110.196 601.57 101.737 596.076 95.8842C590.583 89.94 582.343 86.9679 571.357 86.9679H532.905V51.44H572.868C597.862 51.44 616.539 57.4756 628.898 69.5469C641.35 81.5267 647.575 98.7648 647.575 121.261V156.515C647.575 179.103 641.395 196.478 629.036 208.641C616.676 220.712 597.953 226.748 572.868 226.748ZM545.264 226.748H502.967V51.44H545.264V226.748Z" fill="#60C2DB"/>
<path d="M715.848 226.748H673.825V51.44H715.848V226.748ZM796.735 226.748H686.322V190.945H796.735V226.748ZM793.439 155.006H698.407V120.575H793.439V155.006ZM795.499 86.8307H686.184V51.44H795.499V86.8307Z" fill="#60C2DB"/>
<path d="M999.9 101.92V196.844H964.469V101.92C975.593 109.703 981.849 114.014 999.9 101.92ZM1040 154.457H924.231V121.124H1040V154.457Z" fill="#60C2DB"/>
<path d="M890.036 101.92V196.844H854.605V101.92C865.763 108.714 871.781 113.128 890.036 101.92ZM930.136 154.457H814.367V121.124H930.136V154.457Z" fill="#4978BA"/>
<path d="M892.782 81.3438C892.782 92.7077 883.56 101.92 872.183 101.92C860.806 101.92 851.583 92.7077 851.583 81.3438C851.583 69.98 860.806 60.7678 872.183 60.7678C883.56 60.7678 892.782 69.98 892.782 81.3438Z" fill="#4978BA"/>
<path d="M1002.65 81.3438C1002.65 92.7077 993.424 101.92 982.047 101.92C970.67 101.92 961.447 92.7077 961.447 81.3438C961.447 69.98 970.67 60.7678 982.047 60.7678C993.424 60.7678 1002.65 69.98 1002.65 81.3438Z" fill="#60C2DB"/>
</svg>
